<svg width="20" height="21" viewBox="0 0 20 21" fill="none" xmlns="http://www.w3.org/2000/svg">
<path d="M18.6586 5.49928C17.7643 3.92871 16.5514 2.68528 15.0194 1.76872C13.4871 0.852121 11.8144 0.393936 9.99991 0.393936C8.18569 0.393936 6.51238 0.852261 4.98046 1.76872C3.4483 2.68524 2.23539 3.92871 1.34116 5.49928C0.447068 7.0698 0 8.78483 0 10.6443C0 12.878 0.635737 14.8865 1.90753 16.6705C3.17919 18.4546 4.82198 19.6892 6.83577 20.3743C7.07018 20.4189 7.24371 20.3875 7.35654 20.281C7.46941 20.1743 7.52578 20.0407 7.52578 19.8807C7.52578 19.854 7.52354 19.6139 7.51921 19.16C7.51474 18.7061 7.51264 18.3101 7.51264 17.9723L7.21315 18.0254C7.0222 18.0612 6.78132 18.0764 6.49049 18.0721C6.19981 18.068 5.89804 18.0367 5.58559 17.9787C5.27302 17.9211 4.98228 17.7877 4.71317 17.5786C4.44419 17.3695 4.25324 17.0957 4.14036 16.7578L4.01016 16.4507C3.92337 16.2462 3.78674 16.0191 3.60008 15.7701C3.41342 15.5209 3.22466 15.3519 3.03371 15.263L2.94254 15.1961C2.8818 15.1516 2.82543 15.098 2.7733 15.0358C2.72122 14.9735 2.68223 14.9113 2.65619 14.8489C2.6301 14.7865 2.65172 14.7353 2.72127 14.6951C2.79081 14.655 2.9165 14.6355 3.09888 14.6355L3.35919 14.6754C3.53281 14.711 3.74757 14.8176 4.00373 14.9956C4.25976 15.1736 4.47023 15.4049 4.63518 15.6895C4.83493 16.0544 5.07559 16.3325 5.35784 16.5238C5.63986 16.7152 5.92421 16.8107 6.21061 16.8107C6.49702 16.8107 6.74438 16.7884 6.95279 16.7441C7.16098 16.6996 7.35631 16.6327 7.53868 16.5438C7.61681 15.9474 7.82951 15.4892 8.17661 15.1689C7.68189 15.1156 7.2371 15.0354 6.84202 14.9287C6.44717 14.8218 6.03914 14.6483 5.6182 14.4079C5.19704 14.1677 4.84766 13.8695 4.56997 13.5138C4.29223 13.1578 4.06429 12.6905 3.88648 12.1123C3.70857 11.5338 3.6196 10.8665 3.6196 10.1102C3.6196 9.03335 3.96255 8.11698 4.64832 7.36058C4.32707 6.55099 4.3574 5.64341 4.73939 4.63793C4.99113 4.55776 5.36445 4.61792 5.85918 4.81806C6.354 5.01828 6.71628 5.1898 6.94641 5.33201C7.17653 5.47417 7.36092 5.59465 7.49983 5.69235C8.30727 5.46109 9.14052 5.34543 9.99982 5.34543C10.8591 5.34543 11.6925 5.46109 12.5 5.69235L12.9948 5.37217C13.3332 5.15853 13.7327 4.96274 14.1925 4.78477C14.6526 4.60689 15.0044 4.5579 15.2475 4.63807C15.638 5.64359 15.6728 6.55113 15.3515 7.36072C16.0372 8.11712 16.3803 9.03372 16.3803 10.1103C16.3803 10.8666 16.291 11.536 16.1133 12.119C15.9355 12.702 15.7056 13.1688 15.4236 13.5204C15.1412 13.872 14.7896 14.1679 14.3687 14.408C13.9476 14.6483 13.5395 14.8217 13.1446 14.9286C12.7496 15.0355 12.3048 15.1158 11.8101 15.1692C12.2613 15.5694 12.4869 16.2012 12.4869 17.0643V19.8803C12.4869 20.0403 12.5412 20.1739 12.6498 20.2806C12.7583 20.3871 12.9297 20.4185 13.1641 20.3739C15.1782 19.6888 16.8209 18.4543 18.0926 16.6701C19.364 14.8862 20 12.8776 20 10.6439C19.9995 8.78469 19.5522 7.0698 18.6586 5.49928Z" fill="white"/>
</svg>
