<svg width="20" height="21" viewBox="0 0 20 21" fill="none" xmlns="http://www.w3.org/2000/svg">
<path d="M10 20.3939C15.5228 20.3939 20 15.9168 20 10.3939C20 4.87109 15.5228 0.393936 10 0.393936C4.47715 0.393936 0 4.87109 0 10.3939C0 15.9168 4.47715 20.3939 10 20.3939Z" fill="white"/>
<path d="M15.1937 5.20029H4.80639C4.09219 5.20029 3.50798 5.78482 3.50798 6.4987V14.2892C3.50798 15.0031 4.09219 15.5876 4.80639 15.5876H15.1937C15.9076 15.5876 16.4921 15.0031 16.4921 14.2892V6.4987C16.4921 5.78482 15.9076 5.20029 15.1937 5.20029ZM15.1937 14.2892H13.8953V8.57628L10 11.0431L6.10481 8.57628V14.2892H4.80639V6.4987H5.58556L10 9.22549L14.4145 6.4987H15.1937V14.2892Z" fill="#9bbabb"/>
</svg>
