<svg width="20" height="21" viewBox="0 0 20 21" fill="none" xmlns="http://www.w3.org/2000/svg">
<path d="M9.99974 0.606049C4.47726 0.606049 0 5.08335 0 10.6059C0 16.1286 4.47709 20.606 9.99974 20.606C15.5226 20.606 20 16.1286 20 10.6059C19.9998 5.08335 15.5226 0.606049 9.99974 0.606049ZM5.85031 5.1162C6.53053 5.1162 7.08228 5.61936 7.08228 6.2401C7.08228 6.86085 6.53053 7.36401 5.85031 7.36401C5.16975 7.36401 4.61835 6.86085 4.61835 6.2401C4.61835 5.61936 5.16975 5.1162 5.85031 5.1162ZM7.09161 14.7291H4.65743V8.37726H7.09161V14.7291ZM15.3631 14.7291H12.9172V11.2363C12.9172 10.8376 12.8432 10.5554 12.6957 10.3897C12.548 10.2244 12.3407 10.1414 12.0739 10.1414C11.7788 10.1414 11.5393 10.2531 11.356 10.4765C11.1726 10.6999 11.0811 11.1006 11.0811 11.6788V14.7291H8.64674V8.37726H10.9134V9.41177C11.2521 8.98935 11.5952 8.68728 11.942 8.50573C12.2889 8.32435 12.7113 8.23374 13.2098 8.23374C13.8838 8.23374 14.4109 8.43397 14.7919 8.83477C15.1724 9.2354 15.363 9.85441 15.363 10.6918V14.7291H15.3631Z" fill="white"/>
</svg>
