<svg width="20" height="21" viewBox="0 0 20 21" fill="none" xmlns="http://www.w3.org/2000/svg">
<path d="M10 0.454529C4.47757 0.454529 0 4.93208 0 10.4545C0 15.9769 4.47757 20.4545 10 20.4545C15.5225 20.4545 20 15.9769 20 10.4545C20 4.93208 15.5225 0.454529 10 0.454529ZM15.2807 15.0456L14.48 15.8465C14.3371 15.9892 13.9185 16.0783 13.9051 16.0783C11.3721 16.1004 8.93316 15.1054 7.1412 13.3133C5.34433 11.5154 4.34822 9.06784 4.37497 6.52631C4.37497 6.52515 4.46664 6.11857 4.60947 5.9771L5.41011 5.17634C5.7031 4.882 6.26591 4.74898 6.66017 4.88088L6.82859 4.93706C7.2217 5.06884 7.63443 5.5035 7.74304 5.90394L8.14579 7.38214C8.25441 7.78374 8.10791 8.35508 7.81501 8.64806L7.28039 9.18275C7.80528 11.1259 9.32994 12.6508 11.2734 13.177L11.8078 12.6422C12.1022 12.3478 12.6733 12.2015 13.074 12.3099L14.552 12.7141C14.9526 12.8242 15.3872 13.2343 15.5189 13.6273L15.5751 13.7981C15.7057 14.1913 15.5737 14.754 15.2807 15.0456Z" fill="white"/>
</svg>
