<svg width="20" height="21" viewBox="0 0 20 21" fill="none" xmlns="http://www.w3.org/2000/svg">
<path d="M10 20.4242C15.5228 20.4242 20 15.9471 20 10.4242C20 4.90141 15.5228 0.42424 10 0.42424C4.47717 0.42424 0 4.90141 0 10.4242C0 15.9471 4.47717 20.4242 10 20.4242Z" fill="white"/>
<path d="M3.72426 10.9134C4.89325 10.2695 6.19817 9.73207 7.41742 9.1919C9.515 8.30715 11.6209 7.43774 13.7481 6.62832C14.162 6.4904 14.9056 6.35553 14.9785 6.96886C14.9386 7.83703 14.7743 8.70011 14.6617 9.5632C14.3757 11.4612 14.0452 13.3527 13.7229 15.2444C13.6119 15.8746 12.8225 16.2008 12.3174 15.7975C11.1036 14.9776 9.88042 14.1657 8.68208 13.3268C8.28954 12.9279 8.65354 12.3551 9.00413 12.0703C10.0039 11.085 11.0641 10.2479 12.0116 9.21178C12.2672 8.59457 11.512 9.11474 11.263 9.27411C9.89429 10.2173 8.55912 11.218 7.11613 12.0469C6.37904 12.4527 5.51996 12.1059 4.78321 11.8795C4.12262 11.606 3.15468 11.3304 3.72426 10.9134Z" fill="#453C41"/>
</svg>
